<?xml version="1.0" encoding="UTF-8" standalone="no"?>
<!-- Created with Inkscape (http://www.inkscape.org/) -->

<svg
   version="1.1"
   id="svg2"
   width="610.66669"
   height="365.33334"
   viewBox="0 0 610.66669 365.33334"
   sodipodi:docname="near-protocol-near-seeklogo.com.ai"
   xmlns:inkscape="http://www.inkscape.org/namespaces/inkscape"
   xmlns:sodipodi="http://sodipodi.sourceforge.net/DTD/sodipodi-0.dtd"
   xmlns="http://www.w3.org/2000/svg"
   xmlns:svg="http://www.w3.org/2000/svg">
  <defs
     id="defs6">
    <clipPath
       clipPathUnits="userSpaceOnUse"
       id="clipPath16">
      <path
         d="M 0,274 H 458 V 0 H 0 Z"
         id="path14" />
    </clipPath>
  </defs>
  <sodipodi:namedview
     id="namedview4"
     pagecolor="#ffffff"
     bordercolor="#000000"
     borderopacity="0.25"
     inkscape:showpageshadow="2"
     inkscape:pageopacity="0.0"
     inkscape:pagecheckerboard="0"
     inkscape:deskcolor="#d1d1d1" />
  <g
     id="g8"
     inkscape:groupmode="layer"
     inkscape:label="near-protocol-near-seeklogo.com"
     transform="matrix(1.3333333,0,0,-1.3333333,0,365.33333)">
    <g
       id="g10">
      <g
         id="g12"
         clip-path="url(#clipPath16)">
        <g
           id="g18"
           transform="translate(229.2002,163.2002)">
          <path
             d="m 0,0 v -52.5 c 0,-0.4 -0.3,-0.8 -0.8,-0.8 h -5.5 c -2.5,0 -4.9,1.3 -6.3,3.4 l -24.8,38.3 0.8,-19.1 v -21.901 c 0,-0.399 -0.3,-0.799 -0.8,-0.799 h -7.2 c -0.4,0 -0.8,0.299 -0.8,0.799 V 0 c 0,0.4 0.3,0.8 0.8,0.8 h 5.4 c 2.5,0 4.9,-1.3 6.3,-3.4 l 24.8,-38.2 -0.8,19.1 V 0 c 0,0.4 0.3,0.8 0.8,0.8 h 7.2 C -0.3,0.8 0,0.5 0,0"
             style="fill:#000000;fill-opacity:1;fill-rule:nonzero;stroke:none"
             id="path20" />
        </g>
        <g
           id="g22"
           transform="translate(303,110)">
          <path
             d="m 0,0 h -7.6 c -0.5,0 -0.9,0.5 -0.7,1 l 20.2,52.3 c 0.2,0.4 0.6,0.7 1,0.7 h 9.6 c 0.5,0 0.9,-0.3 1,-0.7 L 43.8,1 C 44,0.5 43.6,0 43.1,0 h -7.6 c -0.3,0 -0.6,0.2 -0.7,0.5 l -16.3,43 c -0.2,0.6 -1.2,0.6 -1.4,0 L 0.8,0.5 C 0.6,0.2 0.3,0 0,0"
             style="fill:#000000;fill-opacity:1;fill-rule:nonzero;stroke:none"
             id="path24" />
        </g>
        <g
           id="g26"
           transform="translate(399.7998,111.2002)">
          <path
             d="M 0,0 -15.2,19.399 C -6.6,21 -1.6,26.8 -1.6,35.7 -1.6,45.9 -8.2,52.8 -20,52.8 h -21.2 c -0.6,0 -1.1,-0.5 -1.1,-1.1 0,-4 3.2,-7.2 7.2,-7.2 h 14.3 c 7.1,0 10.5,-3.6 10.5,-8.9 0,-5.3 -3.3,-8.9 -10.5,-8.9 H -41 c -0.6,0 -1.1,-0.5 -1.1,-1.1 v -26 c 0,-0.4 0.3,-0.8 0.8,-0.8 h 7.2 c 0.4,0 0.8,0.3 0.8,0.8 V 18.899 H -25 L -11.8,1.7 c 1.401,-1.9 3.6,-2.9 6,-2.9 h 5.5 c 0.401,0 0.7,0.7 0.3,1.2"
             style="fill:#000000;fill-opacity:1;fill-rule:nonzero;stroke:none"
             id="path28" />
        </g>
        <g
           id="g30"
           transform="translate(280.2002,118.2998)">
          <path
             d="m 0,0 h -25 c -0.4,0 -0.8,0.3 -0.8,0.8 v 13.5 c 0,0.4 0.3,0.801 0.8,0.801 h 23.1 c 0.4,0 0.799,0.299 0.799,0.799 v 6.8 c 0,0.4 -0.299,0.8 -0.799,0.8 h -31.5 c -0.6,0 -1.1,-0.5 -1.1,-1.1 V -7.1 c 0,-0.6 0.5,-1.1 1.1,-1.1 H 0 c 0.399,0 0.8,0.301 0.8,0.801 V -0.6 C 0.7,-0.3 0.399,0 0,0 m 0,45.7 h -33.5 c -0.601,0 -1,-0.4 -1,-1 0,-4 3.3,-7.3 7.3,-7.3 H 0 c 0.399,0 0.8,0.3 0.8,0.8 V 45 C 0.7,45.4 0.399,45.7 0,45.7"
             style="fill:#000000;fill-opacity:1;fill-rule:nonzero;stroke:none"
             id="path32" />
        </g>
        <g
           id="g34"
           transform="translate(130.2002,177.3999)">
          <path
             d="m 0,0 -18.8,-27.9 c -1.3,-1.9 1.2,-4.2 3,-2.6 l 18.5,16.1 c 0.5,0.4 1.2,0.1 1.2,-0.6 v -50.3 c 0,-0.7 -0.9,-1 -1.3,-0.5 l -56,67 c -1.8,2.2 -4.4,3.4 -7.3,3.4 h -2 c -5.2,0 -9.5,-4.3 -9.5,-9.6 v -70.8 c 0,-5.3 4.3,-9.6 9.6,-9.6 3.3,0 6.4,1.7 8.2,4.6 l 18.8,27.9 c 1.3,1.9 -1.2,4.2 -3,2.6 l -18.5,-16 c -0.5,-0.4 -1.2,-0.1 -1.2,0.6 v 50.2 c 0,0.7 0.9,1 1.3,0.5 l 56,-67 c 1.8,-2.2 4.5,-3.4 7.3,-3.4 h 2 c 5.3,0 9.6,4.3 9.6,9.6 V -5 C 17.8,0.3 13.5,4.6 8.2,4.6 4.9,4.6 1.8,2.9 0,0"
             style="fill:#000000;fill-opacity:1;fill-rule:nonzero;stroke:none"
             id="path36" />
        </g>
      </g>
    </g>
  </g>
</svg>
